<svg id="skip-fwrd-30" xmlns="http://www.w3.org/2000/svg" width="19" height="24" viewBox="0 0 19 24">
  <path id="Fastforward_30" data-name="Fastforward 30" d="M226.625,103.4a7.125,7.125,0,1,1-7.125-7.2V101l5.938-6L219.5,89v4.8a9.6,9.6,0,1,0,9.5,9.6Zm-8.859,2.664a.789.789,0,0,1-.237.144.9.9,0,0,1-.321.048.811.811,0,0,1-.534-.18.517.517,0,0,1-.154-.2.66.66,0,0,1-.059-.264h-1.009a1.458,1.458,0,0,0,.143.66,1.212,1.212,0,0,0,.392.456,1.807,1.807,0,0,0,.546.276,2.213,2.213,0,0,0,.629.084,2.762,2.762,0,0,0,.713-.1,1.706,1.706,0,0,0,.57-.288,1.319,1.319,0,0,0,.38-.468,1.356,1.356,0,0,0,.143-.636,1.263,1.263,0,0,0-.214-.732,1.327,1.327,0,0,0-.641-.468,1.55,1.55,0,0,0,.333-.2,1.224,1.224,0,0,0,.237-.264,1.43,1.43,0,0,0,.154-.3,1.02,1.02,0,0,0,.048-.324,1.558,1.558,0,0,0-.131-.636,1.129,1.129,0,0,0-.356-.456,1.568,1.568,0,0,0-.546-.276,2.538,2.538,0,0,0-.7-.1,2.179,2.179,0,0,0-.641.1,1.561,1.561,0,0,0-.523.276,1.3,1.3,0,0,0-.356.444,1.322,1.322,0,0,0-.131.576h1.009a.544.544,0,0,1,.055-.233.538.538,0,0,1,.147-.187.909.909,0,0,1,.214-.12.628.628,0,0,1,.261-.036.735.735,0,0,1,.3.048.645.645,0,0,1,.214.132.745.745,0,0,1,.131.2.616.616,0,0,1,.048.264.692.692,0,0,1-.19.516.747.747,0,0,1-.57.192H216.6v.792h.534a1.041,1.041,0,0,1,.344.048.766.766,0,0,1,.261.132.579.579,0,0,1,.166.24,1.012,1.012,0,0,1,.059.348.733.733,0,0,1-.048.288A.837.837,0,0,1,217.766,106.064Zm4.631-4.128a2.105,2.105,0,0,0-1.4,0,1.256,1.256,0,0,0-.534.4,1.845,1.845,0,0,0-.344.684A3.906,3.906,0,0,0,220,104v.888a3.341,3.341,0,0,0,.131.984,1.959,1.959,0,0,0,.356.684,1.369,1.369,0,0,0,.546.4,2.105,2.105,0,0,0,1.4,0,1.256,1.256,0,0,0,.534-.4,2.044,2.044,0,0,0,.344-.684,3.43,3.43,0,0,0,.119-.984V104a3.341,3.341,0,0,0-.131-.984,1.959,1.959,0,0,0-.356-.684A1.369,1.369,0,0,0,222.4,101.936Zm.012,3.084a2.673,2.673,0,0,1-.048.576,1.308,1.308,0,0,1-.131.384.463.463,0,0,1-.226.2.82.82,0,0,1-.3.06.771.771,0,0,1-.3-.06.52.52,0,0,1-.226-.2,1.3,1.3,0,0,1-.143-.384,2.675,2.675,0,0,1-.048-.576v-1.164a2.675,2.675,0,0,1,.048-.576.971.971,0,0,1,.143-.372.52.52,0,0,1,.226-.2.819.819,0,0,1,.3-.06.771.771,0,0,1,.3.06.52.52,0,0,1,.226.2,1.21,1.21,0,0,1,.142.372,2.673,2.673,0,0,1,.048.576v1.164Z" transform="translate(-210 -89)" fill="#a6a8ab"/>
</svg>
