<svg id="pause-collapsed" xmlns="http://www.w3.org/2000/svg" width="24" height="24" viewBox="0 0 24 24">
  <defs>
    <style>
      .cls-1 {
        fill: #dadada;
      }
    </style>
  </defs>
  <g id="pause" transform="translate(-465 -33)">
    <g id="Group_172" data-name="Group 172" transform="translate(13 -5)">
      <path id="Exclusion_1" data-name="Exclusion 1" class="cls-1" d="M-3616,1536a11.923,11.923,0,0,1-8.486-3.514A11.921,11.921,0,0,1-3628,1524a11.922,11.922,0,0,1,3.515-8.486A11.922,11.922,0,0,1-3616,1512a11.921,11.921,0,0,1,8.485,3.515A11.922,11.922,0,0,1-3604,1524a11.922,11.922,0,0,1-3.514,8.485A11.921,11.921,0,0,1-3616,1536Zm2.26-19c-.5,0-.9.589-.9,1.312v11.376c0,.723.4,1.312.9,1.312h1.2c.5,0,.9-.589.9-1.312v-11.376c0-.723-.4-1.312-.9-1.312Zm-5.72,0c-.5,0-.9.589-.9,1.312v11.376c0,.723.4,1.312.9,1.312h1.2c.5,0,.9-.589.9-1.312v-11.376c0-.723-.4-1.312-.9-1.312Z" transform="translate(4080 -1474)"/>
    </g>
  </g>
</svg>
