<svg id="play-collapsed" xmlns="http://www.w3.org/2000/svg" width="24" height="24" viewBox="0 0 24 24">
  <defs>
    <style>
      .cls-1 {
        fill: #dadada;
      }
    </style>
  </defs>
  <path id="Play_filled_in" data-name="Play filled in" class="cls-1" d="M174,100a12,12,0,1,1-3.515-8.485A12,12,0,0,1,174,100Zm-13.815-4.36a.75.75,0,0,0-1.185.61v7.5a.75.75,0,0,0,.407.666.747.747,0,0,0,.778-.055l5.25-3.751a.75.75,0,0,0,.231-.953.755.755,0,0,0-.231-.267Z" transform="translate(-150 -88)"/>
</svg>
