<svg xmlns="http://www.w3.org/2000/svg" width="19.2" height="24" viewBox="0 0 19.2 24">
  <defs>
    <style>
      .cls-1 {
        fill: #a6a8ab;
      }
    </style>
  </defs>
  <g id="skip-bckwrd-30" transform="translate(-278 -52)">
    <g id="Rewind_30" data-name="Rewind 30" transform="translate(278 52)">
      <path id="Rewind_30-2" data-name="Rewind 30" class="cls-1" d="M107.6,93.8V89l-6,6,6,6V96.2a7.2,7.2,0,1,1-7.2,7.2H98a9.6,9.6,0,1,0,9.6-9.6Zm-2.928,10.188h.54a.778.778,0,0,0,.576-.192.688.688,0,0,0,.192-.516.645.645,0,0,0-.043-.252.629.629,0,0,0-.137-.216.5.5,0,0,0-.216-.132,1.122,1.122,0,0,0-.3-.048.936.936,0,0,0-.264.036.48.48,0,0,0-.216.12.68.68,0,0,0-.144.18.546.546,0,0,0-.06.24h-1.02a1.271,1.271,0,0,1,.492-1.02,1.583,1.583,0,0,1,.528-.276,2.286,2.286,0,0,1,.648-.1,2.657,2.657,0,0,1,.708.1,1.591,1.591,0,0,1,.552.276,1.218,1.218,0,0,1,.36.456,1.5,1.5,0,0,1,.132.636,1.011,1.011,0,0,1-.2.624,1.316,1.316,0,0,1-.576.468,1.208,1.208,0,0,1,.864,1.2,1.344,1.344,0,0,1-.144.636,1.321,1.321,0,0,1-.384.468,1.731,1.731,0,0,1-.576.288,2.748,2.748,0,0,1-.72.1,2.258,2.258,0,0,1-.636-.084,1.5,1.5,0,0,1-.552-.276,1.6,1.6,0,0,1-.4-.456,1.41,1.41,0,0,1-.144-.66h1.02a.654.654,0,0,0,.06.264.517.517,0,0,0,.156.2.588.588,0,0,0,.24.132,1.206,1.206,0,0,0,.3.048.92.92,0,0,0,.324-.048.673.673,0,0,0,.24-.144.712.712,0,0,0,.156-.216.726.726,0,0,0,.048-.288,1,1,0,0,0-.06-.348.58.58,0,0,0-.168-.24.609.609,0,0,0-.264-.132,1.523,1.523,0,0,0-.348-.048h-.564Zm6.888.9a3.341,3.341,0,0,1-.12.984,2.157,2.157,0,0,1-.348.684,1.345,1.345,0,0,1-.54.4,1.865,1.865,0,0,1-.708.12,1.907,1.907,0,0,1-.708-.12,1.383,1.383,0,0,1-.552-.4,1.853,1.853,0,0,1-.36-.684,3.367,3.367,0,0,1-.132-.984V104a3.341,3.341,0,0,1,.12-.984,2.157,2.157,0,0,1,.348-.684,1.345,1.345,0,0,1,.54-.4,1.865,1.865,0,0,1,.708-.12,1.907,1.907,0,0,1,.708.12,1.383,1.383,0,0,1,.552.4,1.853,1.853,0,0,1,.36.684,3.367,3.367,0,0,1,.132.984Zm-1.02-1.032a2.648,2.648,0,0,0-.048-.576,1.2,1.2,0,0,0-.144-.372.467.467,0,0,0-.228-.2.835.835,0,0,0-.3-.06.786.786,0,0,0-.3.06.524.524,0,0,0-.228.2,1.2,1.2,0,0,0-.144.372,2.648,2.648,0,0,0-.048.576v1.164a2.648,2.648,0,0,0,.048.576,1.286,1.286,0,0,0,.144.384.466.466,0,0,0,.228.2.836.836,0,0,0,.3.06.786.786,0,0,0,.3-.06.524.524,0,0,0,.228-.2,1.03,1.03,0,0,0,.132-.384,2.647,2.647,0,0,0,.048-.576v-1.164Z" transform="translate(-98 -89)"/>
    </g>
  </g>
</svg>
